PathFileType  4	(X/Y/Z) C:\Users\wagnerel85475\Documents\Thesis\opencap-core\Data\3375ffbc-daeb-4a43-b4f7-ac9899cd4c71\MarkerData\PreAugmentation
DataRate	CameraRate	NumFrames	NumMarkers	Units	OrigDataRate	OrigDataStartFrame	OrigNumFrames
60.0	60.0	9	20	m	60.0	321	640
Frame#	Time	Neck			RShoulder			RElbow			RWrist			LShoulder			LElbow			LWrist			midHip			RHip			RKnee			RAnkle			LHip			LKnee			LAnkle			LBigToe			LSmallToe			LHeel			RBigToe			RSmallToe			RHeel			
		X1	Y1	Z1	X2	Y2	Z2	X3	Y3	Z3	X4	Y4	Z4	X5	Y5	Z5	X6	Y6	Z6	X7	Y7	Z7	X8	Y8	Z8	X9	Y9	Z9	X10	Y10	Z10	X11	Y11	Z11	X12	Y12	Z12	X13	Y13	Z13	X14	Y14	Z14	X15	Y15	Z15	X16	Y16	Z16	X17	Y17	Z17	X18	Y18	Z18	X19	Y19	Z19	X20	Y20	Z20	

321	5.3333333	0.8131900	0.6498000	-0.0605000	0.8161100	0.6563200	0.1016800	1.0334500	0.5010200	0.1863400	1.3496000	0.5357300	0.0871200	0.8391500	0.6469200	-0.2320700	1.1372700	0.4625100	-0.2774300	1.3989100	0.5349100	-0.1211400	0.2759400	0.2664600	-0.0768600	0.3155700	0.2675800	0.0288400	0.7961200	0.2514700	0.1242100	0.5460400	-0.1832600	0.0878900	0.2941800	0.2776200	-0.1941400	0.8059900	0.2753500	-0.3040300	0.5532300	-0.1919600	-0.2694400	0.7693400	-0.2311100	-0.3247500	0.7149400	-0.2423700	-0.3500500	0.4802100	-0.2365000	-0.2667500	0.7085000	-0.2400800	0.2044800	0.6691200	-0.2363400	0.2209500	0.5303100	-0.2151800	0.0572700
322	5.3500000	0.8173600	0.6692400	-0.0623400	0.8242200	0.6792000	0.0964000	1.0323000	0.5180800	0.1748100	1.3449900	0.5544300	0.0851100	0.8285500	0.6697100	-0.2366100	1.1281700	0.4766700	-0.2762100	1.3965200	0.5579000	-0.1238300	0.2994900	0.2851600	-0.0825000	0.3125100	0.2873100	0.0276200	0.7994100	0.2556800	0.1171500	0.5457600	-0.1835900	0.0880300	0.3128200	0.3004200	-0.2033600	0.8022700	0.2724100	-0.3012900	0.5531900	-0.1937800	-0.2698000	0.7695400	-0.2312000	-0.3247600	0.7152400	-0.2425700	-0.3500300	0.4799100	-0.2406900	-0.2667100	0.7088100	-0.2384500	0.2039500	0.6744200	-0.2329600	0.2177300	0.5241800	-0.2173300	0.0556100
323	5.3666667	0.8219600	0.6898600	-0.0654900	0.8265100	0.6993300	0.0961900	1.0266700	0.5301900	0.1765700	1.3478300	0.5723600	0.0790300	0.8385600	0.6855900	-0.2410900	1.1326900	0.4994400	-0.2793100	1.3965700	0.5741500	-0.1234900	0.2888200	0.2964300	-0.0780000	0.3260500	0.3051200	0.0234300	0.7942100	0.2572100	0.1157800	0.5410300	-0.1850500	0.0904400	0.2937900	0.3023900	-0.1921000	0.7959400	0.2729300	-0.2991700	0.5585400	-0.1922100	-0.2720000	0.7645600	-0.2328500	-0.3269500	0.7149400	-0.2424200	-0.3501000	0.4806200	-0.2430800	-0.2663300	0.7086200	-0.2362600	0.2044000	0.6787000	-0.2293500	0.2156000	0.5245000	-0.2185100	0.0557900
324	5.3833333	0.8162900	0.7061500	-0.0667800	0.8170200	0.7144400	0.0950200	1.0287800	0.5497100	0.1775800	1.3537200	0.5932700	0.0711800	0.8373400	0.7113500	-0.2413500	1.1349900	0.5191300	-0.2807700	1.3900500	0.5889700	-0.1283000	0.2867400	0.3125800	-0.0823400	0.2944800	0.3098900	0.0205600	0.7984200	0.2633500	0.1127500	0.5458000	-0.1836300	0.0880300	0.3025600	0.3281600	-0.1961000	0.7919700	0.2738900	-0.2969800	0.5586000	-0.1919600	-0.2720300	0.7697500	-0.2329300	-0.3286400	0.7204200	-0.2426300	-0.3517500	0.4802500	-0.2430200	-0.2663300	0.7075200	-0.2365400	0.2001200	0.6789500	-0.2297900	0.2154000	0.5241600	-0.2186500	0.0559800
325	5.4000000	0.8163500	0.7324400	-0.0626900	0.8213000	0.7342800	0.0988300	1.0334300	0.5695700	0.1749100	1.3579100	0.6093100	0.0720000	0.8278100	0.7356300	-0.2412700	1.1307400	0.5445900	-0.2836700	1.3896000	0.6075200	-0.1276000	0.3060000	0.3279000	-0.0860400	0.3099100	0.3342400	0.0196200	0.7886100	0.2597800	0.1140600	0.5408700	-0.1868600	0.0908300	0.3169800	0.3478800	-0.2025000	0.7909500	0.2736500	-0.3022100	0.5585700	-0.1922100	-0.2720100	0.7645500	-0.2347500	-0.3265500	0.7150900	-0.2445500	-0.3504500	0.4803100	-0.2408100	-0.2667700	0.7027100	-0.2399400	0.2031800	0.6833500	-0.2299800	0.2132600	0.5138200	-0.2237200	0.0614000
326	5.4166667	0.8254500	0.7536900	-0.0676200	0.8272600	0.7549300	0.0940700	1.0265500	0.5941300	0.1730800	1.3533100	0.6335600	0.0705500	0.8369000	0.7569000	-0.2459100	1.1253500	0.5584000	-0.2855800	1.3966600	0.6311900	-0.1237000	0.3221300	0.3586300	-0.0883700	0.3244700	0.3573200	0.0250400	0.7883600	0.2607900	0.1135100	0.5406100	-0.1872000	0.0910000	0.3258500	0.3707500	-0.2066400	0.7774400	0.2643400	-0.3083200	0.5586400	-0.1919400	-0.2720500	0.7646400	-0.2329900	-0.3269400	0.7103000	-0.2443900	-0.3522700	0.4798600	-0.2425900	-0.2670900	0.7081500	-0.2378400	0.2047600	0.6784000	-0.2296700	0.2161600	0.5193400	-0.2219100	0.0634000
327	5.4333333	0.8095400	0.7732500	-0.0736600	0.8222000	0.7772500	0.0926100	1.0251100	0.6096000	0.1762300	1.3539400	0.6489700	0.0696900	0.8307900	0.7766300	-0.2440300	1.1193100	0.5809700	-0.2872700	1.3748300	0.6404700	-0.1358900	0.3351500	0.3750200	-0.0891600	0.3473300	0.3763300	0.0250600	0.7843500	0.2621200	0.1160600	0.5408800	-0.1868700	0.0908700	0.3513600	0.3901000	-0.2131800	0.7710600	0.2666400	-0.3065100	0.5585800	-0.1922300	-0.2720200	0.7693200	-0.2311300	-0.3247200	0.7149500	-0.2404700	-0.3504800	0.4800900	-0.2446700	-0.2674700	0.7024900	-0.2398600	0.2032600	0.6676600	-0.2330800	0.2173800	0.5196400	-0.2218000	0.0632400
328	5.4500000	0.8095300	0.7994800	-0.0690000	0.8174900	0.7986000	0.0946400	1.0185400	0.6305600	0.1780100	1.3517900	0.6722300	0.0626600	0.8356000	0.8023000	-0.2462600	1.0957800	0.5995900	-0.2959900	1.3662000	0.6665600	-0.1395100	0.3458200	0.3975600	-0.0891400	0.3591000	0.4016900	0.0280800	0.7850600	0.2667700	0.1149900	0.5405500	-0.1872300	0.0910100	0.3535000	0.4084600	-0.2100500	0.7672800	0.2679500	-0.3087000	0.5585200	-0.1898700	-0.2724100	0.7694400	-0.2312500	-0.3247100	0.7152200	-0.2406500	-0.3504000	0.4798500	-0.2425900	-0.2670600	0.7023700	-0.2397300	0.2031700	0.6724400	-0.2315000	0.2145700	0.5193800	-0.2219700	0.0634000
329	5.4666667	0.8087200	0.8214700	-0.0739500	0.8136600	0.8237900	0.0974500	1.0060200	0.6535300	0.1774300	1.3282900	0.6890400	0.0602100	0.8413100	0.8298100	-0.2484200	1.0931700	0.6241600	-0.2985400	1.3645400	0.6842200	-0.1382000	0.3652900	0.4221300	-0.0827100	0.3827500	0.4262300	0.0363200	0.7848600	0.2699600	0.1155500	0.5408400	-0.1868700	0.0908900	0.3548400	0.4249800	-0.2063300	0.7609000	0.2703300	-0.3068500	0.5584700	-0.1902200	-0.2723700	0.7692300	-0.2311900	-0.3247100	0.7151800	-0.2425600	-0.3508400	0.4801300	-0.2447400	-0.2674600	0.7025300	-0.2397300	0.2032400	0.6724500	-0.2313900	0.2147100	0.5087900	-0.2241500	0.0682100
